<?xml version="1.0" encoding="UTF-8"?>
<svg xmlns="http://www.w3.org/2000/svg" width="188.458" height="29.403" viewBox="0 0 188.458 29.403">
  <g id="cwd-logo-blk" transform="translate(0 0)">
    <path id="Path_474" data-name="Path 474" d="M178.574,42.2c-2.448,0-4.434-.909-4.434-4.434V31.94a8.584,8.584,0,0,0-.132-1.512,4.173,4.173,0,0,0-.435-1.263,2.261,2.261,0,0,0-.851-.87,2.693,2.693,0,0,0-1.379-.323,3.14,3.14,0,0,0-1.453.323,2.973,2.973,0,0,0-1.03.87,4.1,4.1,0,0,0-.622,1.306A5.557,5.557,0,0,0,168.032,32V42.2H161.78V23.388h6.007V26h.078a6.185,6.185,0,0,1,.886-1.193,5.3,5.3,0,0,1,1.274-1,7.724,7.724,0,0,1,1.6-.68,6.252,6.252,0,0,1,1.853-.268,6.994,6.994,0,0,1,3.21.68,6.124,6.124,0,0,1,2.133,1.76,6.882,6.882,0,0,1,1.166,2.475,11.291,11.291,0,0,1,.357,2.794V42.222Z" transform="translate(-98.917 -13.973)" fill="#6d6e70"></path>
    <path id="Path_475" data-name="Path 475" d="M236.6,34.05c-.132.039-.26.078-.389.124a4.561,4.561,0,0,0-.707.338,4.561,4.561,0,0,1,.707-.338C236.335,34.128,236.471,34.089,236.6,34.05Z" transform="translate(-143.992 -20.819)" fill="#f05a28"></path>
    <path id="Path_476" data-name="Path 476" d="M256.131,69.88h0a9.939,9.939,0,0,1-1.131.637,5.884,5.884,0,0,0,1.131-.637Z" transform="translate(-155.914 -42.727)" fill="#f05a28"></path>
    <path id="Path_477" data-name="Path 477" d="M253.32,71.776c.218-.085.435-.159.641-.256C253.755,71.617,253.538,71.695,253.32,71.776Z" transform="translate(-154.887 -43.73)" fill="#f05a28"></path>
    <path id="Path_478" data-name="Path 478" d="M234.263,28.588a9.325,9.325,0,0,0-1.943-3.21,8.292,8.292,0,0,0-2.988-2.021,10.1,10.1,0,0,0-3.816-.7,10.977,10.977,0,0,0-4,.715A9.656,9.656,0,0,0,218.3,25.4a9.446,9.446,0,0,0-2.153,3.171,9.166,9.166,0,0,0-.346.964,10.276,10.276,0,0,0-.389,2.087c-.031.389-.047.742-.047,1.127a10.406,10.406,0,0,0,.812,4.232,8.883,8.883,0,0,0,2.227,3.109,9.749,9.749,0,0,0,3.307,1.943,12.085,12.085,0,0,0,4,.653,8.363,8.363,0,0,0,1.166-.054c.389-.054.672-.07,1-.124a10.881,10.881,0,0,0,1.146-.245h0A9.69,9.69,0,0,0,230.1,41.9c.218-.082.435-.159.641-.256a9.939,9.939,0,0,0,1.142-.637l.369-.249a7.463,7.463,0,0,0,1.294-1.166c-.264-.525-1.923-3.47-5.261-2.211h-.019a5.215,5.215,0,0,1-2.495.548,4.982,4.982,0,0,1-1.6-.264,4.818,4.818,0,0,1-1.4-.738,4.064,4.064,0,0,1-1.018-1.111,3.318,3.318,0,0,1-.474-1.438H234.92a7.012,7.012,0,0,0,.035-.719v-.769a12.361,12.361,0,0,0-.692-4.305Zm-12.978,1.943a3.384,3.384,0,0,1,.389-1.379,3.82,3.82,0,0,1,.905-1.166,4.09,4.09,0,0,1,.614-.439,4.562,4.562,0,0,1,.707-.338c.128-.047.256-.085.389-.124s.268-.062.389-.085a5.258,5.258,0,0,1,.87-.074,3.489,3.489,0,0,1,2.778,1.061,3.7,3.7,0,0,1,.925,2.53Z" transform="translate(-131.681 -13.854)" fill="#6d6e70"></path>
    <path id="Path_479" data-name="Path 479" d="M245.631,73.781l.338-.051h0c-.326.054-.657.1-1,.124C245.2,73.835,245.417,73.812,245.631,73.781Z" transform="translate(-149.782 -45.081)" fill="#f05a28"></path>
    <path id="Path_480" data-name="Path 480" d="M243.166,74.05c-.389.035-.777.054-1.166.054C242.389,74.1,242.777,74.081,243.166,74.05Z" transform="translate(-147.966 -45.276)" fill="#f05a28"></path>
    <path id="Path_481" data-name="Path 481" d="M455.766,34.05c-.132.039-.26.078-.389.124a4.56,4.56,0,0,0-.707.338,4.56,4.56,0,0,1,.707-.338C455.505,34.128,455.634,34.089,455.766,34.05Z" transform="translate(-277.999 -20.819)" fill="#f05a28"></path>
    <path id="Path_482" data-name="Path 482" d="M475.282,69.88h0a9.619,9.619,0,0,1-1.142.637A5.885,5.885,0,0,0,475.282,69.88Z" transform="translate(-289.903 -42.727)" fill="#f05a28"></path>
    <path id="Path_483" data-name="Path 483" d="M472.494,71.776c.214-.085.431-.159.637-.256-.206.1-.424.175-.641.256Z" transform="translate(-288.894 -43.73)" fill="#f05a28"></path>
    <path id="Path_484" data-name="Path 484" d="M453.447,28.589a9.4,9.4,0,0,0-1.943-3.21,8.307,8.307,0,0,0-2.984-2.021,10.149,10.149,0,0,0-3.816-.7,10.985,10.985,0,0,0-4.006.715,9.656,9.656,0,0,0-3.213,2.024,9.446,9.446,0,0,0-2.153,3.171,9.156,9.156,0,0,0-.346.964,10.548,10.548,0,0,0-.389,2.087c-.035.389-.051.742-.051,1.127a10.406,10.406,0,0,0,.812,4.232,8.839,8.839,0,0,0,2.23,3.109,9.714,9.714,0,0,0,3.3,1.943,12.1,12.1,0,0,0,4.006.661,8.365,8.365,0,0,0,1.166-.054c.389-.054.672-.07,1-.124a10.7,10.7,0,0,0,1.146-.245h0a9.43,9.43,0,0,0,1.076-.354c.218-.082.435-.159.641-.256a9.62,9.62,0,0,0,1.142-.637l.369-.249a7.462,7.462,0,0,0,1.294-1.166c-.264-.525-1.923-3.47-5.257-2.211h-.023a5.206,5.206,0,0,1-2.491.548,4.985,4.985,0,0,1-1.609-.264,4.743,4.743,0,0,1-1.395-.738,4.079,4.079,0,0,1-1.018-1.131,3.319,3.319,0,0,1-.474-1.438h13.643q.039-.348.043-.7v-.777A12.434,12.434,0,0,0,453.447,28.589Zm-12.982,1.943a3.385,3.385,0,0,1,.389-1.379,3.82,3.82,0,0,1,.905-1.166,4.09,4.09,0,0,1,.614-.439,4.563,4.563,0,0,1,.707-.338c.128-.047.256-.085.389-.124a3.45,3.45,0,0,1,.408-.085,5.174,5.174,0,0,1,.866-.074,3.489,3.489,0,0,1,2.778,1.061,3.7,3.7,0,0,1,.925,2.53Z" transform="translate(-265.694 -13.854)" fill="#6d6e70"></path>
    <path id="Path_485" data-name="Path 485" d="M464.8,73.781l.338-.051h0c-.326.054-.657.1-1,.124C464.369,73.835,464.587,73.812,464.8,73.781Z" transform="translate(-283.789 -45.081)" fill="#f05a28"></path>
    <path id="Path_486" data-name="Path 486" d="M462.326,74.05c-.389.035-.777.054-1.166.054C461.56,74.1,461.945,74.081,462.326,74.05Z" transform="translate(-281.967 -45.276)" fill="#f05a28"></path>
    <path id="Path_487" data-name="Path 487" d="M324.36,18.3v7.2a3.26,3.26,0,0,0,.509,1.993,2.189,2.189,0,0,0,1.834.661,6.572,6.572,0,0,0,.964-.074,3.361,3.361,0,0,0,.851-.225l.074,4.531a10.538,10.538,0,0,1-1.624.389,11.579,11.579,0,0,1-1.966.167,9.186,9.186,0,0,1-3.175-.474,4.908,4.908,0,0,1-2.056-1.36,5.343,5.343,0,0,1-1.115-2.122,10.2,10.2,0,0,1-.342-2.747V18.3l-5.164-.066c.062-2.611,3.28-4.546,4.663-4.546h.447V11.663c0-3.816,2.083-4.663,4.663-4.663h1.438v6.687h4.422V18.3Z" transform="translate(-191.469 -4.28)" fill="#6d6e70"></path>
    <path id="Path_488" data-name="Path 488" d="M365,3.4a3.241,3.241,0,0,1-.284,1.341,3.415,3.415,0,0,1-1.888,1.8,3.645,3.645,0,0,1-1.379.264,3.5,3.5,0,0,1-2.533-1A3.245,3.245,0,0,1,357.9,3.4a3.249,3.249,0,0,1,.264-1.3,3.051,3.051,0,0,1,.754-1.076,4.025,4.025,0,0,1,1.135-.738A3.4,3.4,0,0,1,361.436,0a3.723,3.723,0,0,1,1.379.264,3.455,3.455,0,0,1,1.131.719,3.5,3.5,0,0,1,.758,1.076A3.24,3.24,0,0,1,365,3.4ZM358.35,23.5V9.407h6.194V28.226h-1.477A4.721,4.721,0,0,1,358.35,23.5Z" transform="translate(-218.83 0)" fill="#6d6e70"></path>
    <path id="Path_489" data-name="Path 489" d="M393.473,43.028h-6.687L379.38,24.21h6.847l3.963,12.205h.113l2.895-8.906c.905-3.206,2.471-3.3,4.542-3.3h3.14Z" transform="translate(-231.964 -14.803)" fill="#6d6e70"></path>
    <path id="Path_490" data-name="Path 490" d="M123.992,27.771a6.944,6.944,0,0,0-1.166-2.475,6.124,6.124,0,0,0-2.133-1.76,6.994,6.994,0,0,0-3.213-.68,6.244,6.244,0,0,0-1.85.268,7.849,7.849,0,0,0-1.616.68,5.358,5.358,0,0,0-1.282,1,6.38,6.38,0,0,0-.89,1.193h-.074V23.388H105.76v3.563a12.434,12.434,0,0,1,1.488,5.922,12.164,12.164,0,0,1-1.487,5.827v3.5h6.217V32a5.561,5.561,0,0,1,.21-1.531,4.022,4.022,0,0,1,.622-1.306,2.938,2.938,0,0,1,1.041-.886,3.128,3.128,0,0,1,1.453-.323,2.693,2.693,0,0,1,1.379.323,2.261,2.261,0,0,1,.851.87,4.173,4.173,0,0,1,.435,1.263,8.583,8.583,0,0,1,.132,1.512v5.829c0,3.524,1.982,4.434,4.43,4.434h1.8V30.565A11.292,11.292,0,0,0,123.992,27.771Z" transform="translate(-64.665 -13.973)" fill="#6d6e70"></path>
    <path id="Path_491" data-name="Path 491" d="M30.359,21.18a10.309,10.309,0,0,0-7.107,2.872h0a10.438,10.438,0,0,0-.75.8c-.1.12-.21.241-.311.369-4.049,4.558-4.97,6.7-7.853,9.605-1.216,1.243-1.943,1.822-3.349,1.943a5.009,5.009,0,0,1-5.013-3.109,4.943,4.943,0,0,1,4.515-6.893,4.506,4.506,0,0,1,2.72.7C17,30.245,19.312,26,19.219,25.862A10.491,10.491,0,0,0,0,31.683a10.651,10.651,0,0,0,10.491,10.67A10.309,10.309,0,0,0,17.6,39.482h0a10.39,10.39,0,0,0,.746-.8,3.582,3.582,0,0,0,.311-.389l7.97-9.8A4.5,4.5,0,0,1,29.811,26.8a5.024,5.024,0,0,1,5.1,3.151,4.939,4.939,0,0,1-4.55,6.816,4.787,4.787,0,0,1-2.522-.676c-4.352-2.666-6.287,1.438-6.194,1.578a10.491,10.491,0,0,0,19.219-5.829A10.651,10.651,0,0,0,30.359,21.18Z" transform="translate(0 -12.95)" fill="#f05a28"></path>
    <path id="Path_492" data-name="Path 492" d="M283.143,34.181a3.886,3.886,0,0,1-2.125,1.85,4.845,4.845,0,0,1-5.506-1.581,4.779,4.779,0,0,1,2.425-7.573,9.886,9.886,0,0,1,2.673-.058,4.873,4.873,0,0,0,4.639-3.151c-1.869-2.024-5.273-2.914-8.77-1.986a10.1,10.1,0,0,0-7.029,12.512,10.329,10.329,0,0,0,12.559,7.2,9.881,9.881,0,0,0,5.133-3.5Z" transform="translate(-164.512 -13.032)" fill="#6d6e70"></path>
  </g>
</svg>
